<svg xmlns="http://www.w3.org/2000/svg" viewBox="0 0 1600 700">
  <defs>
    <linearGradient id="g1" x1="0" y1="0" x2="1" y2="1">
      <stop offset="0%" stop-color="#30411d"/>
      <stop offset="60%" stop-color="#556c30"/>
      <stop offset="100%" stop-color="#8f733f"/>
    </linearGradient>
    <linearGradient id="g2" x1="0" y1="0" x2="0" y2="1">
      <stop offset="0%" stop-color="#d9e9d0" stop-opacity="0.1"/>
      <stop offset="100%" stop-color="#f0efe7" stop-opacity="0.28"/>
    </linearGradient>
  </defs>
  <rect width="1600" height="700" fill="url(#g1)"/>
  <rect width="1600" height="700" fill="url(#g2)"/>
  <circle cx="1260" cy="110" r="66" fill="#d9bc74" opacity="0.95"/>
  <path d="M0 330 C180 250, 380 260, 640 350 S1160 470, 1600 300 L1600 700 L0 700 Z" fill="#748b45" opacity="0.55"/>
  <path d="M0 430 C280 360, 520 390, 860 470 S1320 580, 1600 480 L1600 700 L0 700 Z" fill="#31411d" opacity="0.55"/>
  <g opacity="0.35">
    <path d="M160 650 L340 420" stroke="#efe6d0" stroke-width="2"/>
    <path d="M300 650 L480 410" stroke="#efe6d0" stroke-width="2"/>
    <path d="M440 650 L620 400" stroke="#efe6d0" stroke-width="2"/>
    <path d="M580 650 L760 390" stroke="#efe6d0" stroke-width="2"/>
    <path d="M720 650 L900 400" stroke="#efe6d0" stroke-width="2"/>
    <path d="M860 650 L1040 410" stroke="#efe6d0" stroke-width="2"/>
    <path d="M1000 650 L1180 420" stroke="#efe6d0" stroke-width="2"/>
    <path d="M1140 650 L1320 430" stroke="#efe6d0" stroke-width="2"/>
  </g>
  <g opacity="0.14">
    <ellipse cx="220" cy="120" rx="100" ry="34" fill="#ffffff"/>
    <ellipse cx="540" cy="170" rx="130" ry="46" fill="#ffffff"/>
    <ellipse cx="920" cy="120" rx="110" ry="36" fill="#ffffff"/>
  </g>
</svg>
